<mxfile host="65bd71144e">
    <diagram id="NQbdevP67i4PQxkOO86s" name="Page-1">
        <mxGraphModel dx="594" dy="561" grid="1" gridSize="10" guides="1" tooltips="1" connect="1" arrows="1" fold="1" page="1" pageScale="1" pageWidth="827" pageHeight="1169" math="0" shadow="0">
            <root>
                <mxCell id="0"/>
                <mxCell id="1" parent="0"/>
                <mxCell id="119" value="" style="pointerEvents=1;verticalLabelPosition=bottom;shadow=0;dashed=0;align=center;html=1;verticalAlign=top;shape=mxgraph.electrical.miscellaneous.batteryStack;" vertex="1" parent="1">
                    <mxGeometry x="70" y="50" width="100" height="60" as="geometry"/>
                </mxCell>
                <mxCell id="120" value="&lt;font style=&quot;font-size: 18px&quot;&gt;-&lt;/font&gt;" style="text;html=1;resizable=0;autosize=1;align=center;verticalAlign=middle;points=[];fillColor=none;strokeColor=none;rounded=0;fontFamily=Helvetica;fontSize=11;fontColor=default;" vertex="1" parent="1">
                    <mxGeometry x="50" y="50" width="20" height="20" as="geometry"/>
                </mxCell>
                <mxCell id="121" value="&lt;font style=&quot;font-size: 18px&quot;&gt;+&lt;/font&gt;" style="text;html=1;resizable=0;autosize=1;align=center;verticalAlign=middle;points=[];fillColor=none;strokeColor=none;rounded=0;fontFamily=Helvetica;fontSize=11;fontColor=default;" vertex="1" parent="1">
                    <mxGeometry x="160" y="50" width="30" height="20" as="geometry"/>
                </mxCell>
                <mxCell id="122" value="&lt;font style=&quot;font-size: 18px&quot;&gt;5 V&lt;br&gt;&lt;/font&gt;" style="text;html=1;resizable=0;autosize=1;align=center;verticalAlign=middle;points=[];fillColor=none;strokeColor=none;rounded=0;fontFamily=Helvetica;fontSize=11;fontColor=default;" vertex="1" parent="1">
                    <mxGeometry x="100" y="20" width="40" height="20" as="geometry"/>
                </mxCell>
                <mxCell id="123" value="&lt;font style=&quot;font-size: 18px&quot;&gt;220&amp;nbsp;&lt;/font&gt;&lt;span style=&quot;color: rgb(32 , 33 , 36) ; font-family: &amp;#34;arial&amp;#34; , sans-serif ; font-size: 16px ; text-align: left ; background-color: rgb(255 , 255 , 255)&quot;&gt;Î©&lt;/span&gt;" style="text;html=1;resizable=0;autosize=1;align=center;verticalAlign=middle;points=[];fillColor=none;strokeColor=none;rounded=0;fontFamily=Helvetica;fontSize=11;fontColor=default;" vertex="1" parent="1">
                    <mxGeometry x="195" y="380" width="60" height="20" as="geometry"/>
                </mxCell>
                <mxCell id="124" style="edgeStyle=orthogonalEdgeStyle;rounded=0;orthogonalLoop=1;jettySize=auto;html=1;exitX=1;exitY=0.115;exitDx=0;exitDy=0;exitPerimeter=0;endArrow=none;endFill=0;fillColor=#f8cecc;strokeColor=#b85450;" edge="1" parent="1" source="126">
                    <mxGeometry relative="1" as="geometry">
                        <mxPoint x="180" y="80" as="targetPoint"/>
                    </mxGeometry>
                </mxCell>
                <mxCell id="125" style="edgeStyle=none;html=1;exitX=0;exitY=0.885;exitDx=0;exitDy=0;exitPerimeter=0;entryX=0;entryY=0.25;entryDx=0;entryDy=0;entryPerimeter=0;endArrow=none;endFill=0;" edge="1" parent="1" source="126" target="142">
                    <mxGeometry relative="1" as="geometry">
                        <mxPoint x="290" y="130" as="targetPoint"/>
                    </mxGeometry>
                </mxCell>
                <mxCell id="126" value="" style="pointerEvents=1;verticalLabelPosition=bottom;shadow=0;dashed=0;align=center;html=1;verticalAlign=top;shape=mxgraph.electrical.electro-mechanical.2-way_switch;rotation=-180;" vertex="1" parent="1">
                    <mxGeometry x="205" y="117" width="75" height="26" as="geometry"/>
                </mxCell>
                <mxCell id="127" value="Switch&lt;br&gt;" style="text;html=1;resizable=0;autosize=1;align=center;verticalAlign=middle;points=[];fillColor=none;strokeColor=none;rounded=0;" vertex="1" parent="1">
                    <mxGeometry x="182.5" y="150" width="50" height="20" as="geometry"/>
                </mxCell>
                <mxCell id="128" value="rr" style="verticalLabelPosition=bottom;shadow=0;dashed=0;align=center;html=1;verticalAlign=top;shape=mxgraph.electrical.opto_electronics.led_2;pointerEvents=1;flipH=1;rotation=0;" vertex="1" parent="1">
                    <mxGeometry x="334" y="325" width="100" height="70" as="geometry"/>
                </mxCell>
                <mxCell id="129" value="Output&lt;br style=&quot;font-size: 18px;&quot;&gt;" style="text;html=1;resizable=0;autosize=1;align=center;verticalAlign=middle;points=[];fillColor=none;strokeColor=none;rounded=0;fontSize=18;" vertex="1" parent="1">
                    <mxGeometry x="290" y="424" width="70" height="30" as="geometry"/>
                </mxCell>
                <mxCell id="130" value="Input A" style="text;html=1;resizable=0;autosize=1;align=center;verticalAlign=middle;points=[];fillColor=none;strokeColor=none;rounded=0;fontSize=18;" vertex="1" parent="1">
                    <mxGeometry x="230" y="80" width="70" height="30" as="geometry"/>
                </mxCell>
                <mxCell id="131" value="Emmanuel&amp;nbsp;&lt;br&gt;TEJ3M&lt;br&gt;Unit #4-11" style="text;html=1;resizable=0;autosize=1;align=center;verticalAlign=middle;points=[];fillColor=none;strokeColor=none;rounded=0;fontSize=18;" vertex="1" parent="1">
                    <mxGeometry x="460" y="310" width="110" height="70" as="geometry"/>
                </mxCell>
                <mxCell id="132" style="edgeStyle=orthogonalEdgeStyle;rounded=0;orthogonalLoop=1;jettySize=auto;html=1;exitX=1;exitY=0.115;exitDx=0;exitDy=0;exitPerimeter=0;endArrow=none;endFill=0;fillColor=#f8cecc;strokeColor=#b85450;" edge="1" parent="1" source="136">
                    <mxGeometry relative="1" as="geometry">
                        <mxPoint x="182" y="80" as="targetPoint"/>
                        <Array as="points">
                            <mxPoint x="165" y="265"/>
                            <mxPoint x="165" y="80"/>
                        </Array>
                    </mxGeometry>
                </mxCell>
                <mxCell id="133" style="edgeStyle=orthogonalEdgeStyle;rounded=0;orthogonalLoop=1;jettySize=auto;html=1;exitX=1;exitY=0.885;exitDx=0;exitDy=0;exitPerimeter=0;endArrow=none;endFill=0;entryX=1;entryY=0.885;entryDx=0;entryDy=0;entryPerimeter=0;" edge="1" parent="1" source="136" target="126">
                    <mxGeometry relative="1" as="geometry">
                        <mxPoint x="200" y="203" as="targetPoint"/>
                    </mxGeometry>
                </mxCell>
                <mxCell id="134" style="edgeStyle=orthogonalEdgeStyle;rounded=0;orthogonalLoop=1;jettySize=auto;html=1;exitX=1;exitY=0.885;exitDx=0;exitDy=0;exitPerimeter=0;endArrow=none;endFill=0;entryX=0;entryY=0.5;entryDx=0;entryDy=0;entryPerimeter=0;" edge="1" parent="1" source="136" target="139">
                    <mxGeometry relative="1" as="geometry">
                        <mxPoint x="170" y="365" as="targetPoint"/>
                        <Array as="points">
                            <mxPoint x="170" y="245"/>
                            <mxPoint x="170" y="365"/>
                        </Array>
                    </mxGeometry>
                </mxCell>
                <mxCell id="135" style="edgeStyle=none;html=1;exitX=0;exitY=0.885;exitDx=0;exitDy=0;exitPerimeter=0;entryX=0;entryY=0.75;entryDx=0;entryDy=0;entryPerimeter=0;endArrow=none;endFill=0;" edge="1" parent="1" source="136" target="142">
                    <mxGeometry relative="1" as="geometry"/>
                </mxCell>
                <mxCell id="136" value="" style="pointerEvents=1;verticalLabelPosition=bottom;shadow=0;dashed=0;align=center;html=1;verticalAlign=top;shape=mxgraph.electrical.electro-mechanical.2-way_switch;rotation=-180;" vertex="1" parent="1">
                    <mxGeometry x="232.5" y="242" width="75" height="26" as="geometry"/>
                </mxCell>
                <mxCell id="137" style="edgeStyle=orthogonalEdgeStyle;rounded=0;orthogonalLoop=1;jettySize=auto;html=1;entryX=0;entryY=0.5;entryDx=0;entryDy=0;endArrow=none;endFill=0;" edge="1" parent="1" source="139" target="119">
                    <mxGeometry relative="1" as="geometry"/>
                </mxCell>
                <mxCell id="138" style="edgeStyle=none;html=1;exitX=1;exitY=0.5;exitDx=0;exitDy=0;exitPerimeter=0;entryX=1;entryY=0.57;entryDx=0;entryDy=0;entryPerimeter=0;endArrow=none;endFill=0;" edge="1" parent="1" source="139" target="128">
                    <mxGeometry relative="1" as="geometry"/>
                </mxCell>
                <mxCell id="139" value="" style="pointerEvents=1;verticalLabelPosition=bottom;shadow=0;dashed=0;align=center;html=1;verticalAlign=top;shape=mxgraph.electrical.resistors.resistor_2;" vertex="1" parent="1">
                    <mxGeometry x="175" y="355" width="100" height="20" as="geometry"/>
                </mxCell>
                <mxCell id="140" value="Input B" style="text;html=1;resizable=0;autosize=1;align=center;verticalAlign=middle;points=[];fillColor=none;strokeColor=none;rounded=0;fontSize=18;" vertex="1" parent="1">
                    <mxGeometry x="237.5" y="205" width="70" height="30" as="geometry"/>
                </mxCell>
                <mxCell id="141" style="edgeStyle=none;html=1;exitX=1;exitY=0.5;exitDx=0;exitDy=0;exitPerimeter=0;entryX=0;entryY=0.57;entryDx=0;entryDy=0;entryPerimeter=0;endArrow=none;endFill=0;" edge="1" parent="1" source="142" target="128">
                    <mxGeometry relative="1" as="geometry"/>
                </mxCell>
                <mxCell id="142" value="" style="verticalLabelPosition=bottom;shadow=0;dashed=0;align=center;html=1;verticalAlign=top;shape=mxgraph.electrical.logic_gates.logic_gate;operation=and;" vertex="1" parent="1">
                    <mxGeometry x="334" y="160" width="100" height="60" as="geometry"/>
                </mxCell>
                <mxCell id="143" value="" style="shape=image;verticalLabelPosition=bottom;labelBackgroundColor=#ffffff;verticalAlign=top;aspect=fixed;imageAspect=0;image=data:image/png,iVBORw0KGgoAAAANSUhEUgAAARAAAADrCAIAAAAuSl4sAAAgAElEQVR4nO2dWXAc13Wwe5mlZ3r2FbNgMMAAg5UASawUd0qiRJoWaUmWlThx2eUlTvyQuCovqbzlyalK8uRKqVRxyik7VYotx6JEStwXkRQpAtwAEACxEZh9w+w9a0/3/3B+zY8fICEMCWAA+n4PKmow033u7T73nnvuuefgPM9jCARidRDVFgCB2EoghUEgKgApDAJRAUhhEIgKQAqDQFSA4Gl/+Id/+IeNlAOB2FS88cYbu3btWv75UxXmF7/4hUajMRqN6ykVArHpSCaTfr/farVWpjAYhh0+fPjv/u7v1k0wBGIzcvny5X/6p3962l9XUhiTydTf378OIiEQmxe3202S5NP+ihb9CEQFIIVBICoAKQwCUQFIYRCICkAKg0BUAFIYBKICkMIgEBWAFAaBqACkMAhEBSCFQSAqYKXQmGeA5/lcLhcMBmdnZ202m8FgkMlkBPF/1ZJhmIWFhWAwSBBEQ0MDTdMikQjDsFKpVCwWXS5XqVQym81SqbRUKgUCAZ/PFwwGF19fIpGYzWaTyaTX61cWg+M4j8fj8/kikQjLsvC5Xq+32+0ajUYqla6mOdFoNBwOi8ViuVyu0WhwHH+WTlkRnud5no9EIoFAQKPR0DQtEAhCoVA2m7XZbBKJBBpSKpU0Go1MJqMoaoWrZbPZaDT66NGjRCLxxC+YzeampiaZTAY9vwEwDOP3+wmCkEqlGo3mafctlUqFQsHlcvE8bzabJRKJUCjcGAkrYo0VplQqLSwsXL58+Ve/+tW777778ssvOxyOch8Fg8Evv/zy/PnzIpHoxz/+cUNDA/ypWCzGYrHTp0/ncrljx47V1tbm8/krV6588sknFy5cWHx9s9n8xhtvHD16dP/+/SuIwXFcPp+/evXq6dOnr127xjAMfL5v377vf//7fX19q1SYmZmZq1ev6vV6p9PZ19e3QojRM8PzfLFYHBkZOXPmzMDAQH19vUwmu3DhQiAQePfdd61Wa6FQOHfuXDab7e/vb2xsXFlhFhYWhoaG/uVf/mVkZOSJXzh27Njf/u3fOhwOrVa75m15IuFw+OzZsyKRqLa2tq+vT6PRPPFrxWIxGo2eOnWKZdljx45ZLBaVSrUxElbEGitMoVCYnJyMRqONjY3pdHp+ft5ms5UVhuO4QqHg9Xqz2ezdu3elUqlarS7/KZ/P5/P5UqkEg26hUDAajQcPHty2bRvMJ6VSKZ/Px+PxkZERnue3bdu2/KnzPJ/P5ycmJq5duxaLxZqbmwcGBkiShM/T6fQXX3whk8mEQqFer/9aBYBhr1AogFRr21cAjuMCgaCpqUkgEJhMJoqicrlcoVDI5XIcx0GLVi+DUqns6Oj42c9+Fg6HeZ4fHR31+XwYhjmdzvr6egzDHA6HzWajaXo92vJE1Gr17t27CYKQy+Urj1PwDrAsWyqVNky8SllLheE4LpvNzs3N5fP5np6eeDzudrsZhhGLxQLB/3ejVCo1MjJit9vr6upWGDJNJlNDQ8Px48ebmpowDGNZ1u12f/LJJ36/Px6P6/V6hUKxZOIulUqxWGxiYuLChQtdXV39/f0HDhygaZrjuEwmc+XKlf/5n/95/PixVqvVaDQEQRQKhVgslkgk0uk0hmFisVgmk2k0GolEkslkQqGQ1+vNZDJyuTwajSqVSoIg4vF4PB5PJpMYhslkMp1OJ5PJxGLxYjGKxSLoJ47jGo2GJEmWZaPRKM/zFEWB3VUsFhOJRKFQUKvVCoWioaFBIpEwDOP1ekOhUCQSmZ+fl0qlUqmU5/lSqZTNZj0eTyQSKRaLCoVCq9XSNL2k+XK5XC6XNzY2wuP4+OOPYao5dOjQ7t27sa+GgIWFhUwmAz8RiUQwduTzeb/fD/2AYRhFUSaTCQaXfD7PMAw0mWVZhmEIgqAoSq/XwxeKxSLDMOFwOJvNsiwrEolUKpVOpxMKhRRFmc1mHMdFIpFAIMhkMtCB2WwWwzDlV6RSKbCfC4XC3NwcTdNSqVQoFML3Y7FYPp/HMEyn06nVapqmYQSMRqO5XA4ElkgkOp1OJBKVlwDrwVoqTKFQSKfT8XhcKpX29/dfvHjR5/P5/X7oPvgOQRDt7e0KhcLr9U5NTVmt1rq6ulW2kCRJrVa7Z8+eq1ev3r9/3+PxGAwGnU63eGlRKBRmZ2fD4bBer+/r6+vr6wOFJAhCIpHU1dUNDAzk83m3293W1kYQRDgc/vTTT69fv37v3j0Mw8xmc19f3+uvv+50OsfGxi5cuPCHP/yBJMne3l6xWLxz506Koi5fvnzp0qWbN29iGLZjx45vf/vb27dvr62tXSxqMpmcn5+/f/++QCA4evQo6Nvp06eLxaLdbt++fbtKpQqHw9evX/d4PEeOHAmFQl9++WVrayvDMNeuXRsaGopGo+l0+ujRo/v27QNt8fl8586dm5iYCAQCu3fvPn78eFdXl06nq+gZZTKZQCBw6tSpiYkJ+MRkMr3zzjsymcztdr///vt3796Fz+vr63/yk5/s2LHDaDR6vd6RkZFbt25xHBeLxYaHhyUSicPhePfdd3fs2KHT6RKJxIMHDz744IOpqalkMllTU3PgwIF33nlHr9fHYrHLly8LBAKz2dzV1eX1ei9fvnzhwoWZmRkMw/bs2XPw4MG9e/dOT0+fPn36ypUryWRydnb23XfffeWVV/R6/dTUFHzf5XJhGPbmm2++9tprXV1dsOg9derU/Pw8COxwON55552ampqVrdbnZC0VJpPJRKNRDMPUarXdbq+trQ0EAsFgUK1WlxUGx3GtVisSiSiKyufzo6OjML6u5vo4jkskktraWp1OR5JkJpMpD5MAx3G5XG5+fj6dTtfX11ssFrVaXdZGkiRNJtOuXbvS6bRcLhcIBG63e2xsLBQKGQyG1157rVgsZrPZ2dnZ+fn5mpoalUpls9mampqkUmlzc7PZbAY1mJmZUSgUhw4dyuVyOI5fvHhRKBRKJBK1Wl228UiSpCgqmUyWSqVcLicSibLZbDgczmQyFEVls1mappPJZCqVgoEzm83CKT+app1OZzgcpmm6vb3darUKBAIcxxmGcbvdOp2up6fH5XLBbKlSqSQSSUX2FcjjcrmCwWB7e7tOpzOZTBiGTU9PDw4OqtXqPXv20DQdDAY5jnv06BFMxfCTS5cubd++va6uTqlUhkKhZDI5PT2t0WhUKtXk5OT09LRer1cqlXAjgiBGR0d37NhRKBQikQg8cb/f73a7XS6Xw+Gw2+0YhonFYr/fH41GKYpqbGwcGxvLZDKdnZ0wKT1+/Hh0dHRyctJut9tsNrjUjRs3lEqlVCplGObx48eJRKKtrU2tVtfX19M0vR7rzMWspcKkUqlQKERRlE6n0+v1jY2NBEEEAoGampra2tryPADeko6OjuHh4dHR0dbW1iX2zAqQJCmXy9VqtVKphCXN4r+Cwvh8vnw+39LSolarwRQEAymfz/M8X1tbKxKJwDxwuVwTExMSieSll146ePAgwzA3b958//33Q6FQOp1ubGzMZrOFQkGv17e0tHR3dw8ODo6MjMTj8d27dx8+fDgWi128ePG9996zWq1gvZSflkQiMRgMEokkkUjkcjmxWFwsFgmCKJVKqVSqWCwWCoVEIgFmj0KhgGWeSCSy2Wzt7e0kSfp8vrfeestms+XzebCXwuHwm2++2dnZ6XK5Pv744+vXr2/fvt1sNle6IAFPplwuP3DgAOhMMBgcGhoaGxt7++23e3t7DQbDvXv37t69OzEx4XK5Ojo6OI5LJpPj4+OvvPLK8ePHbTbb9evXz5075/P55ufn29raJiYmfD7fgQMHWltbDQbD7Ozs1NTU1NRUY2NjeQVbLBb9fr/P58vlcn/+53/e1dWF4/ilS5emp6czmYzJZKqpqQmFQizLnjhxwmazlUqliYmJiYkJhmF+9KMfOZ1OhmH+4z/+Y3BwsL6+3m63Q0O0Wu1rr73mcDgMBkNF/fBsrKXChMPhubk5vV5vNpsxDIPpeHR0NBqNFovFxda2RCKxWq1zc3Pz8/Pj4+OlUqlS02JlQGnLejg+Pn7r1q0vvvgiHA4TBNHZ2dnX13fgwIGWlhaLxYJhGIyLAoGApmmtViuRSJZcENwVfr8/FAqZzWaDwUBRlFarbWho6OnpoSgqkUgsXqoSBAHGdKFQgJeAZVmr1SoSiXK5HMMwPM8/evRILBbX1tauxoSQy+UWi0Wr1UqlUqPRaDabjUbj6geaxeA4LpVKYRUOA4dOpwPlAd8UjuMymUylUi0erZVKZXt7e319vV6vh9WLw+Eoux8XIxQKrVarSqVqb283GAzhcPiJYhAEIRAIuru7m5ubYT0Ja6Qy4DdTqVQ1NTUmk0mlUsnl8tbWVpZlPR4PTdOwmFEoFLCOeoaueAbWRmE4jmNZNhQKPXr0SCaT+f3+qampeDweCoXm5uasVmsmk5HJZP/vrgKBSqWqra0Nh8Pz8/NisVihUIBTaGVggyWfz2cymRV8KfxXwP+SJCkWi6VSqUAgYBhmbm7OYDAUCgUQaWZmZnx8HFar8/Pzbrfb6XQ+sY0Mw4RCIdB/r9eLYZjL5YpEIlqtNh6PL5Yf7qhUKpPJJHyfJEm1Wl0sFkOhUCaTgd2qhoYGvV6/moctkUgsFotcLhcKhVKpFNbEz2Z+gGUrFArhPYPVnUwmSyQS9+/fh7c2FArBXlD5VzRNlzfWQAalUlkoFHAcJ0mytrY2l8vNzc0Fg0F4ia1Wa0NDg0AgKCsMSZIqlUqv16tUqnv37s3OzgoEgrq6OvDaLXn6MELFYjGCIEwmE03TMKyYzeZQKMQwTCaTAd+MTCaDbnmGrngG1kxhYDV5//798fHxeDyO4zjP81Kp1GKxNDU1xWKxxcMhQRBCobC1tRXH8VOnTgmFwoaGhtU4E8HHmkqlotFooVB42tfy+XwkEikbbK2trU6n8zvf+U4gEJiamrp9+zZ8DmbG+++/PzQ0BO5XjuNKpVJzc/PTrhwKha5du5ZMJmFpxHEcx3Hf/OY3l8gPM4zFYikUCslkMplMCoVCjUajUCgSiQQoZzabJUlylWa3WCzW6XTLp75nQywWUxQFMwx8Mjs7e+rUqZMnTz569AjDMJ7nNRrN3r17lwgA2rLYywKPsq+vTyQS/ed//ufQ0FAgEGhvbz9+/PgPfvCDxaMkbMVIpdJgMPjrX/8avAvvvvvuO++8MzAwsGSahbVWIpFY7gZUqVSRSAT7SvNlMtnWm2EymQy4R+x2+8svv1yezbPZbCgUEgqFo6Oji/sOwzAcxxUKBZgW8Xj88uXLoVDoa3fTSqVSJpMBTaAoakkvw2AJxt7U1FRzc3NtbS1JkgRBwHOlKEosFpMkyXFcsVicnJwcHh5ubGzs6OjQ6XSlUsnj8dy+fRvWwU+kpqbmL//yL2EpXP6wvr6+vr5++dus1+tTqZTX6y0Wi7BckcvlMpksGo3CDAnj9BKf+xPBcXw94gwwDAOjcWpqyu12v/HGGxqNRiwWRyKRWCy2eIYBGZ4mG/hFvve9773++uuJRIJlWZIkP/7445deemlJE0wm0549ezQaTTAYZFk2k8lMTk7qdLqamprF1yQIAuyOJVtP6XQaXClLLrsGHbE61kBheJ5Pp9NTU1PZbNbhcLz11luNjY3wEoRCoaGhocnJybGxsba2tiVzCDjOHQ7HyMjInTt3GIaRy+Ur3yiXy3k8HvimSqVashEGmwN2u31hYeHOnTsulwuCaAQCAdhy4OzPZDIikYhlWa/X63K5mpubu7u7u7u7U6nU7du3XS7XExcVcHGj0eh0Ordt29ba2goXDAaDYBUsee9xHFepVAqFApatMAqKxeJ0Oh0OhxOJhEgkgtFxNbbo+lEsFhcWFgKBQCwW+853vjMwMEDT9MOHD+/fvz88PPy1P4ehZ2FhoVAo9Pf3UxTFsuzU1NT9+/fv3r0Lrhf4JsuyiURCJpMpFIojR46IRKJisXjy5MmRkZFIJLJkWxNsWpVKFYvFFhYWYDOX47hgMBgKhfR6/bOt356fNVAYlmVTqdTs7CxEiCkUirKNIRKJ1Go17GZGo9HljaRpure3N5FI3L59O5FIaLXaFd6eUqkUiUSuXbu2sLDQ2NgIK8slowtYdy6XKxwO3759G8fxl19+WSaT8TyfzWYfPXr0ySefSCSS5WEXHMeFw+Hx8fGrV69ardYlf4UJymQyBQIBmC0dDkehULh3794HH3zQ2dm5c+fO7du3L1FgiqJIkgyHw5FIRKlUkiQJDvH5+flkMllbWwt+vHKo22YAQnWmp6cfPHiwZIZ5IizLptPpc+fORSKRV155xWazwXADrzusG+Gb2Wx2ZGQkm82m0+lDhw6BWxmWQ8t3fjEMEwgEGo1mbm5ufHy8vb1dJpMxDDM+Pu5yuXbs2LExPrHlrIHCQMBfIBCw2Wx1dXUSiaT8EotEIoPBIBaLU6mUy+UqO+n/3+0FAp1O53Q6u7u7h4aGisXi4r96PB632+33+8FUg8Esl8vZ7fbOzk6j0bjcmCFJEvw5b775ZiwWGxkZefjwIbYowMRisTidzpaWFqVSabVavV7v7du3h4eHL1y4oNPpUqlUa2srTdOpVIrjOLD179696/P55HK5QqFobW2Nx+M3b968c+cO2Iccx2k0GoPBsFwY2NQHfwNN0zC4goOE53mr1apUKpcoPEmSEomE5/lQKHTx4sWdO3fa7fZ1nYKEQqFWq9XpdBRFffbZZ4ODgxqNJp/PK5VKhmEKhUKxWFwhJAdsJ41G4/F4fvOb34jFYpqmCYLQaDR9fX06na68Ew/P2uPxTE9P+3w+gUBQKpVEIlFNTY3BYFAoFIVCAbZlTp06tXfv3sbGxqamJni1Tp48Cb71QqHQ1tbW3Nwsl8sXFhbWr1uexhooTD6fh6FIpVJZLJbF9oxIJNLpdLBYjEajsEqjabqsVGDnNDY2chyXSCRIkgS/DQS3Mgzz4MGDBw8elC9oMpmOHDmybds2CPRYDo7jYrG4vb29ra3t3LlzZ86c+eyzz1KpFPx19+7d3/3ud7u7u2EOaWhoiEQip0+fnp6eFolER48ebWpq+sY3vqFWq8EAkMlker3+zJkzbre7ubm5r69Pr9d7vd7PPvvs2rVrGIa1tbUdOXKkq6sLolGWIBKJYJ2mUChUKpVSqaRpmmVZiOyw2WwKhQJMcHCpSSQSiqJkMhlN08Vi8fbt21Kp1Gq1glOrHPQBawaVSgXrsRUeDazsQRL4BJy5crkcYthwHIewutra2pqamhs3biQSCYvF8uqrrzY3NzMMIxAIOI4DNVYqlWKxGB6cQCCAmUEmk0ml0vb29nA4/Lvf/S4cDlMU1dLScvToUbDu/H4/mKNKpbKxsZHn+cHBwTNnzpR37nt7e41GIwxSGo1mcnLy888/NxqN9fX1TU1NsKX72WefPX78GMOwP/uzPwNdKhaLqVRKoVCAfm7YMgZ/2uCB4/jPf/7zf/u3f/vaS4AjKBAIyOVyg8EgEonKT5HneZZlg8EgONTBlQEDyeLYRwhV8vv9OI7D+wFDLBgzi+9FUZTBYNDr9U8Lel1MOBwG92jZ5tFoNLDVAFqdzWbj8fjjx48hOMpgMMAmIOzcq1SqfD4fi8U8Hg9BEGABkiQJgsHwBk3W6/VPW33BBj/LsvBeguHu9/tLpRJs5giFQog3CYfDKpUKZqRAIAANh+EGIilB34RCIZimsVgM7vs0a57n+XA4DLFhsB+PYRjLsrlcLhQKwfoblBAEgGUM+Cf0er1UKk0kEgqFQq/XQ1xcIpEwGAwqlYogCFh8F4tFqVSq1+szmczCwsLjx49hm1UmkxkMBovFUt5yxXGcoiiFQsEwTCAQiEajMMjCfiV4PliWBRmy2azJZIJ3KZlMwnOEqA6LxWI0GlUqFQQuhkIhkUhkMpnAtfO1r8Rq+PDDD3/wgx/84he/+NnPfvbkbn0iGIb9/Oc/f9pfEYgXld///vcymeyXv/zlE/+KTlwiEBWAFAaBqACkMAhEBSCFQSAqACkMAlEBSGEQiApACoNAVABSGASiApDCIBAVgBQGgagApDAIRAUghUEgKgApDAJRAUhhEIgKQAqDQFQAUhgEogKQwiAQFYAUBoGoAKQwCEQFIIVBICoAKQwCUQFIYRCICkAKg0BUAFIYBKICkMIgEBWAFAaBqACkMAhEBSCFQSAqACkMAlEBX18fBgq+xmIxqFuypCboepBKpbLZrEAgkEgkK5dBhbqhpVJJIBBANa+nyVYqlRKJBIZhFEVBre0lfy0Wi4lEAsdxtVq9hrUTnkY+n08mkziOi0Si5XVhoWRsJBLJZrOLi0xB9RitVluuFbOEdDqdzWbFX7EaSXieh7ZDtWcoq6hQKJRKpUKhWE39TQzDOI7L5XKxWAwq0ggEgufsQCjLkUgkoC7NRlaAWZmv6Q6e57PZ7NjY2KlTp/r7+3fu3KnT6da7Yu3o6OijR4/UarXT6WxtbV3hmx6P58qVK1Dr78iRI1qt9mkPOJ1OX7t2jef5hoYGm822pGQflIC+dOmSQCA4duwY1CpayyYtIxQKXblyRSwWm0ymzs7OJbXZoLzz7373u/Hx8cV17hsaGnp7e7/97W8vKVxV5tGjR6Ojow0NDXa7vba2djWSFIvFSCRy+fLljz76KBAIQD2ZPXv2HDp06MCBA+UKlSuTy+Wmp6dPnz7tdDoHBga0Wu0TxVs9yWRyZmbm0qVLzc3Nhw4dWlz6bwPgn15xbVUzDBTca2pqKhQKK1xrrUilUqFQCHR1BamgNM/MzAxUlovH4zKZ7GndWiqVotEoz/NGo3F5TUkY0QOBABQ82oA25vP5UCgE9diW11uHwpE+n08oFO7YsQMmdgzDYKofHR3FcbyhoWH5ZaHirE6nK5dcX5lkMunxeL788ku/39/U1FRXVwflAaVS6dzc3PXr15ubmxsaGkiSXHmABzPE4/Fotdp8Pv/8HQgFxrxeL1S33oAnskoq1lqYwYvFIo7jHMcVCgXsq7L0QqEQKryxLFssFgmC4Hm+UCjgOA5FccHUKZVKpVIJinLBewCfwKMiCCKXy2UyGYZhstlsoVB44vzOcVw0Go1EIgzDcBzHcdzCwgJU8Hr+TuF5HpoGz6lsqEDdPKFQyPN8WWYcx4vFItS1E4lEIpEIx3Gw8aDh8LaV+wpKOufz+Vwux/M8VFEvlUpLrDKSJGma7unpeeutt0wmE7TrzJkzd+/effDggUwmq6+vf04rhef5UCj04MGD06dPd3R0/OhHP4LSeRiGXbx48ebNm+fPn2cYxmKxwHwLz6Jsr0IroOhfoVCAQsfZbDaTyRSLRZIkWZaFd4BlWXi4YrFYIBDASwJdJBAIwMiHh8iy7JILwstAUdQK9vZGUpnCgLZMTEwMDQ3JZDKv13vr1i2O4/R6/a5du/r7+1tbW2Ox2MTExK1bt4xGI8Mwn3/+uUgkstvtR48edTqdSqUyEAhAadzt27d3dXUJBIJAIDA1NZVIJHieVyqVZ8+evXLlikgkOnjwIIZhLS0tUBR2MaVSKRAI5PP5pqYmnudJkhwbG4Oy4M/fKXDxzz//PJvNkiR58+ZNn8+HYVhvb+/AwEB/f3+hUHC73RMTE8lkUiQS3b17d2Fhoa6ubv/+/bt375ZIJC6X6/bt20ql0mw2Nzc3CwSCaDR69epVoVDY1NSUTCbv3Lnz0Ucf5fN5m82Wz+cHBgaeWCVzCSaTyWq1Qh1zeNueeakAb+fMzMz8/PyBAwc6OjqMRmPZEG1ra8Nx/MKFC4lEwuVy1dTUBIPBq1evNjY2OhwOs9mMYVg0Gr18+bJAIOjp6bl3796NGzdu3LgxNTXldrvfeOMNHMdHR0cNBkMulxseHvb7/SRJvvbaa93d3Y2NjfF4fHp6+tatW93d3du3b5dIJPF43Ov1jo+PUxTV399//fr18+fP37p16/Hjx/F4/NixY06nc+UF7cZQscJArfTh4WGaprPZLI7juVzO5/N98cUXUJc4nU7Pzc1duXKlpaUFWsgwjNvtfvjwIZRrTaVSPp9vdHTUZDJxHMfzPHwB6okqFAooCgtj8xNXezBxBYPBXC7X0NAgFApTqdTY2FgkEoGx7TlXnCDS5OQklEpPp9Msy2YymdHRUZIkGxoaeJ4PBAJXr15Np9PNzc1Q3Xdubg4qNjY0NCQSicnJSYPBIBQKGxsbCYLIZrNQelan03EcV25geQpapWAEQUgkEpjHnqeNpVIJbNpYLNbT0+N0OhdPzgaDIZvNKhSKdDr9+PFjqOk7MjICxUlhVGIY5tGjRyKRqKWlBSbYcqN4nl9YWHjw4AEUW8/lcmBiwdxoNBrT6XQwGLx//77JZGpvbxeLxblcLhKJTE5OKhSKnTt34ji++DWA0rnP09614hkXUhzHpdPpzs7Of/zHf/T7/Xfu3Pnwww8nJye7urrAzPD5fCaTqaOj46//+q9dLtf9+/cnJydFIhFMCE+7rEaj6e3tzWQyBoNBp9Nt3769t7d3eaHgUqmUy+WCwSDP83a7XS6XB4PBO3fuJBIJhmGgrO6ztWsJUOL0pz/9qcFgcLlcf/zjH4eHh3fv3q1UKguFwoMHDwQCwcsvv3zixAmSJM+cOZNIJL744ouVC9YSBNHY2KjT6eLxuFgsrqur27Nnj06nW408gUAgEAhAYdTndL0UCoVoNJpKpUqlklarVSgUi/9KkiRFUUqlcmFhYXJysr6+foXmCIXC3t5eg8EQj8e3bdt26NAho9E4PDzM8/zjx4/tdvtPfvITkiTn5+f/+Mc/joyMNDc3r7SqFghomt61axdUEe7s7Dxx4oRarV5vN8wqeUaFIUnSYDBYrVatVksQRDgc1uv1EokETFWhUCiTyRwOR0tLi1qtxnE8m83Oz8/H4/FYLLbCehTsV5FIJBaLKYoCk3f513K5XBZOqyMAACAASURBVDweLxQKUqlUq9XCXKdUKovFYjgcLi+Nnh+YMw0Gg8FgIAjCZDLBygSMQLPZrFarOzo6TCYTjuNdXV3Dw8Nerzcej6+85obq6iKRiKIoKKT8xEGBYZgrV66Mjo6WF/0CgaCmpqalpQWMoucE7AUMw544fguFQrVanc1mV7PmFggEsLqDBwfrDRzH7XZ7a2srGHsEQdhsNoFAMD8/v9zGXkz5NSj30uon4fXm2RWmpqbGYDDAeKBWq9VqddmTKBQK5XJ5XV2dzWaDAu0mkwnMklQqtdxJVSlgSwQCAaFQCBNXJBKJRCIikcjr9YIKPectAIVCYbPZZDKZRCKBNsbjcZi+BAKBxWIxmUz19fUymYzjOLvdPjU1FYvFYNX7nLfmv6rY7vV6yxrV2tpqs9kwDAOvybq+RlA9HIylZ7sCjuM2m62xsVEmk1EUlc/na2pqUqlUOByWyWRrK+2G8YwKQxCEQqF4WnF6gUAgk8ngPVuPJwpLxs8//3xmZuaDDz7AcZxl2VQqNTAwIJfLGxsbVzaKVo9EIoFdwuV/gh5QKpUikYgkSRiq1xB4X1999dUDBw7A7I1h2MLCgsvl+v3vf9/f33/06NEN3p2oFBzH5XI5LEqrLcua8YzdjeM4+AefqA/gQi0UCjCZFIvFbDYLK78nXi2fzycSidWMyhzHFYtFj8czMTHR1NTkdDrB5AMfJYZhbrc7FAqp1eo1mWTAdnri8wanKniEwcucy+XAD75ceaBDUqmUVCpd5a3BJa3RaJqamspu5UAgALN0NBplGGZ5yMLqEQgEcrkc1nupVCqTySzuMdhXCQQCPM9brVbwYi3+OTxT8CKucJdCoQDbMtADDMM8zVgtFArJZPL5rY/1Zl3Gp2KxmE6nk8kkwzAqlSqXyyWTSbCGy5sSLMuyLAufMAwTCoVW7nqgVCql0+n5+fnZ2dkTJ0709/c7HA6YYdLp9OnTp69fvx4IBMr7CesHx3EQCQKhKCzLJhKJTCYDjxzGEWgj+OLT6XQkElkSYVApNE2rVCqYbXK53PNMa2AqQ0yD3+/XaDQajabsk8xms9Fo1OVyGY3GxsbGcmdCi7CvxrhUKrWCxvI8n0gk4vE47GJls1mIY4KNFxhl4B0At2Q4HF7lfmsVWS+FSSaTPp/P7/cbjcZ4PO73+ymK0ul0Go0GRuK5uTmfzxeNRmmaDoVCMzMzq1nIwrI+mUwSBKHVasvvHwRlgZMgFApFIhGLxbIeTVssydzcHOzHg6E/MzPDcVxDQ4NGo4EAEwgdgNnV6/VOTEzACuSZSSQSoVAolUphGLY8Aq0ioMccDkcsFrty5UokEoFFGmjj2NjYnTt30ul0U1NTbW1teQPE7/fPzc05HI54PD4/P7+wsLBCCAzP836/X6VSQcTGwsJCJBLRarV1dXUSiSSXywUCAb/fD36aSCQyPT3NMMwzt2hjWBeFgX39hYWFe/fuwcZTIpGw2+1Op1Mmk8FgJpfLHz16xHFcTU2Nx+OBOAD4uUgk4jgOAkD0er1Opys/sFwu53a7c7kc6J5MJoMREZybKpVKrVa73W61Wt3a2vr8IYArgOM4bNE8ePBgYmICBNNoNLCCgu2XBw8ejI6OYhhG03Q8HidJstwQ2Mj3eDzgYFy+7gIbZnJy8vTp0+XYtlQqlUgkamtrbTYbTdPPs4ABL5bFYmEYBsQ4e/YsrMcwDAuHwwzDOJ3OxsZGGJWUSqXT6fR6vTdv3kwkEgKBAIw0cN+RJAl79l6vd2hoqKurC1wFxWLR7XafPHkSLC6Kourq6mAs02g0Vqt1fn7+k08+sdlsS0w+uBrLsm63e3BwsKOjAzxMz9zetWJdJJBKpWazOZFInD9//tq1a0ajsa+v74c//GFnZ6dYLDabzZlMpru7+5NPPvnNb37T0dHR2tra1tYGkSMYhoHT6aOPPpqamlIoFAMDA4sVZmZmplgsNjQ0LI7wA0ekwWAwm81ffvmlSCTau3cvTdPr57yHDTuPx3Pp0qU7d+5ks9k9e/a8+eab+/fvh5jigwcPTk9PX7ly5de//nVPT093d3dzc7PD4Sj/XKvVfvrpp7CfKxAIligMGJ/Xr1//7//+7/JC0Ww29/b2/vjHP+7o6JBKpc/vUNHpdLCT+Mknn/zyl7/0eDzJZBLDsMOHDx87duzYsWMGgwFUyGq1vvrqq7/61a9Onz79/vvv7969+8CBA2DUYV8NkRKJ5N69e4ODgz/84Q8hyIWmaZfL9e///u+pVKq2tvbv//7vd+3aZTKZoIGvvvrqb3/72//6r/+qra3t6enp6elxuVwgGERb5/P5wcHB6enpH/3oRwqFYjP41r5eYSiKamlp+f73v2+xWHQ6nVgs3rZtm1qtrqmpAW+6WCy22+3vvvuuWq3W6/UQRY/j+I4dO6xW67Fjx2iaNhqNTU1N8N7jOG40Gg8fPux0OiORCEw4KpWqVCopFAqhUFhXV3fkyBG73a5Wq5ubmxdH8iqVyn379uVyOaFQqNfrl4hqtVr379/f3NysUqkq8iBJpVKLxXLs2DGCINRqtUgkMhgM3/jGN8RiscFgkEqlMCHs379/586ddrsdYhwlEklra2tvb++RI0c4jjObzQ6Hg6IoiKxTqVTf+MY32tvbo9Eo7OSwLKtQKIxGI/gPu7u7YQe9tbV1SWSxXC7v6Oj4m7/5GwiWK38uk8kMBkNra6tSqVwT9yMYZkaj8ZVXXoEoDRi2bDZbfX09nHQod5HZbH777bd7enrS6bTJZLJYLAMDAwqFoqamBrZKvvWtb+3bt69UKjmdzunpaQzDzGbztm3bXnrpJY7j5HL5jh07jEYjSK7RaPr6+pRK5be+9S1ol9FoTKVSZedqfX399773PfBtOJ3OrbFxCSO3xWJZvCSw2WyLbXEY2g0GA4ZhxWIRHjCE0+7Zs0cmky23ixQKRWdnZ2dn5xNvqtfr9Xr9jh07lv+Jpum2tranSQu6t/KJgCcC49ni3TSlUtnd3b34OyRJtre3w789Hg/4Cc1mM0wpy0MnSZLcuXPnzp07n3bThoaGJ0YcYxgmkUhqa2tXGZ//nJAkKZfLt23btm3bthW+Bk6CgYGBgYGBJ36Boqi+vj7sq8Alr9cLh4u6urqampqWu+Zpml6hBzAM0+v1+/fvr7xB68uL4yBHIDaANV7DkCSpUCgg1rWxsVEsFm+SiAaJRAJxbnq9fvWbIU9DoVDY7XbYu9yAI6irx2azEQRhMBhWefBrnSBJsq6u7vXXX7fZbHq9/nm8eZuNNVYYgiCUSuXXzu8bj0QiWcE6qhSFQqFQKFYTkL/B1NfXrxAouTGAsbqyubV1QSYZAlEBSGEQiApACoNAVABSGASiApDCIBAVgBQGgagApDAIRAUghUEgKgApDAJRAUhhEIgK+PrQGP4r4H/h4NHyT8rffOIni3+IfZXseeWvPfP11+mH8N9NKNjTfrhpBVvNO1B+91a+4+JLYRhWzmG75Gv42gX7fY3CFAqFu3fv3rlzZ2hoiGVZtVrd29srl8tzudzQ0FAwGMQwbOfOnRC/ND4+PjY2hmFYXV1dT08PhmGhUGhoaCibzdI03dvbq9VqOY4bGhpyu90Yhm3bts3pdGIYNjMzc//+fQzDTCZTT0+PSCSKx+NDQ0OJREIkEvX09MCRo3v37s3OzmIY1tzc3NHRgWGYy+UaGhrieV6r1fb29tI0nclkBgcHI5EIhmE9PT11dXUYhj18+HBiYgLDsPr6eogoCwQCQ0ND+XxeoVD09PSo1episTg0NAQpYbu6uiBObGpqanh4GMMwq9Xa09NDkmQ0Gh0cHEyn0xRF9fT0QA7IO3fuzM3NYRgGJ+EwDJubm7tz5w6GYQaDoaenRyKRpNPpwcHBaDRKkmRPT4/VasUwbHh4eGpqCsMwh8Oxfft2DMN8Pt/Q0FCxWFSpVL29vQqFIp/PDw0NBQIBDMN27NgBAVoTExMPHz7EMMxms/X09OA4Hg6Hh4aGMpmMVCrt7e3V6XQ8zw8NDcGRrI6OjubmZgzDZmdn7927h2FYTU1NT0+PWCxOJBJDQ0PxeFwoFPb09MBB8fv378/MzGAY5nQ6ISzQ7XYPDQ1xHKfVant6emQyWTabHRwchOIC3d3ddrsdw7CxsbHx8XEMw+x2O5yPCAaDQ0NDuVxOLpf39PRoNBqWZYeGhrxeL4ZhnZ2dTU1Ni7vabDbv3LmTZdlIJDI2NpbJZCQSyf79+9VqdTAYnJiYgGe0Y8eO7du3h0Kh2dlZuKPJZDpw4ACcLBgfH08kEgRBHDp0qLe3t6mpaa1S1X39DANZ8wKBACRAgKom2Ww2HA7DU4zH43CEPRaLwScymQw+SSaToVCIYRi5XJ5IJMRiMcdxkUgEvmaxWJb8UCgUptNpkUgEP4zFYvBEIZ/TwsICfE2n08EP4/F4MBiEPNapVIrneYZhytePx+NwxCUajcInkPsUw7BEIgGZZiFBh1AohKoP8DWbzQZfK/+QoihI+ACn6pPJpEQiSSQSkB2iLBgkQYVbwyc4jkN2yWQyGQ6Hw+EwSZLxeBwOKpavr1arF/8Q0r1D6oJcLlfu6lgstqTHpFJpOp3GcRx6LJ1Oy2SyRCJBURTP8+UWmc3mJT8UCATpdBruEgqFotGoSCRKJBKQArPcIq1Wu7irIQU7nMrMZDKLu3pJj8nl8sVdDSlmIBU1KAN8rba2dvk7kEqlisViPB6HFkml0lQqBW9F+YeQ/w0S6JR/CFlp4BnFYjGSJJPJ5NqWnMCfdi0cx3/+85//67/+K+SsgFTzcCodUrJns1lIIAIlijAMg7RDIDocroSyOJBKWCKRQNbdcr6lctEfSNIOTxFO20HWolKphOO4RCKBs5OQzn3xDyHZD4ZhZcGgsg8IJpFIYFwpCwZpFLGv6lvwX6UqBsGWt6gsmFAopCgKBMtms5C0vyxYuezRcsEEAgGcweQ4DvLm4DgO2S4Xt2i5YJCs9WmCrdzVkHvyiYJV2tVlwYrF4pJ3YOWuXizY8q4uvwPLuxoE43m+VCrl83loERx6ZVk2n8+Xu4KiKKgTAXeEnJI8zxeLxUKhAC2SSqWVpqL+8MMPv//97//zP//zz372s+V//foTl08rA7YkGy+GYU/L6/e1P1wlq7z+kuJET/vh8hMjqxRseaqkjRdslXdc5dee+Yfr3dWbEOQlQyAqACkMAlEBSGEQiApACoNAVABSGASiApDCIBAVgBQGgagApDAIRAUghUEgKgApDAJRAUhhEIgKqE6FGjixUCwWoaIdQRBQMXM96h9BGF+5UtwaHo1YAahJWCwWeZ7HcVwoFK5T6ziOg4J4BEGUC+49J+VHAzGm8GhepPzIz0N1FKZQKECluBs3bkQikbq6uv7+/r6+vjWvswfBxffv33e5XFDKZ4USc2vI/Pz84ODgl19+GQgEdDrdgQMHXnrpJag8s7Y3ikQijx494nleqVQ2Nzc/f+sg6vny5ctffPGFy+Wqqanp7Ozcu3evzWbbDAXAqk4VTDKWZcPh8ODg4OTkZDQazWazgUDgwYMHMzMzkUhkbet3l6suP3z4sFyddF2B1sGRuHA4nMlkFhYWJiYm7t27F4vF1lwAhmHcbjfUjn7+i0Ol25GRkcnJSb/fn8vlIpHIxMTEo0eP/H7/Gp4q2bpUYczI5XKzs7N/+MMf2tra/uqv/spqtY6Ojp4/f350dJQkyd7e3jUfhjeSfD7/8OHDsbGxRCLx3e9+t6Ghwev1Xr9+/eTJk1qtViaTrXd552eG53mWZefn50HU48ePd3d3T01N3bhx48GDByzLmkwmNMls9AwDh4fgRJFGo6mrqzMajWazuba2NhaLuVwuODO0wVKtIaVSaWFhoVQq1dfXm83mmpqauro6OBcZiUTgrOKmBQ57xeNxuVxut9t1Op3FYrHb7VCCnGEYOLz1p0wVTDI4zUdRlFKpVKvVYrFYpVLBUdVAIACn/zZeqjUBBmkoCGy32xUKBUVRUDKaIIhYLLbJFQaOPebzeblcrtfrBQKBUqm0Wq3ZbBbKncMxyT9lqjPDFAoFsVgMJ3Xh5KpGo8nn8/F4PJ/Pb12FgVO1yWSyVCpBAV2ohy6XyxUKBcMwcH59c7J48heLxVKpFISnaRqOB0MOgGqLWWWqYJKm02nI2wCeUAzDoOwwLNC3uj0GOUMEAgHUvIdmgmeWZdnNPBZA8oBMJlM+uw/Cwz/AUb6ln86aUAWFyWQyDMO8kC4XjuMKhQIkvqm2LBXD83w+nweFQWuVp1EFhQH7ZGM2EDcYSPWiUqm24jYfJDwBP95aZfF68djoNQyO4zRNS6XSUqkEJgoslDOZDOTXEQgEW1eXygojFovBp1ROF5TP50Ui0WaeeUBhpFKpUCgE8xiELxQKHMeRJCkWi7fiQLC2VMFLRlGUWCzO5/OQnApM52g0KhaLlUrlln4q8FYpFAqSJCORCCQKKxQKqVQqmUzSNC2Tyaot41OBhGmQrAxsMxCeYZhSqSQQCGQyGZp5qqMwIpEol8vFYrFwOAza8vjxY7lcbrVaIe3dxku1VpAkqVKpeJ6fnp6Ox+OZTCYcDqfTaYIgtFrt8kRemwqhUCgWiyUSSTKZ9Pv9hUKh/GgsFotcLkcKs9FrGBjGlEqlwWBIJBL37t3TaDQulysWi3V1ddntdpFItKUVRiAQmEymcDg8Nzf38OHDSCQSjUbz+Xxtba3RaNzkMwxsvNjt9mw2Ozo6msvlfD6fz+czm80OhwPyVlZbzCpThUU/RVENDQ1vv/322bNn33vvvUgkYrPZ+vv7t23b1tLSstWDL8RicXt7e7FYdLlcv/3tb4PBoE6ne/nll0+cOGGz2SBf66ZFIBDU1dWdOHHi1KlTJ0+edLvdRqOxq6urq6uro6NjSw9ka0UV3k6CIBQKhdPpTKVSkDm7pqamvb3dZrNJpdKNl2dtIQiCpun6+vp9+/ZptdqFhQWVSrVz506Hw0HT9CZ/58AlY7Vae3t7KYoKBAJarbaxsdHhcCiVyq3rjFlDqjOci0QirVZ7+PDhw4cPV0WA9cZsNpvN5ldeeaXaglQMSZJSqXTv3r179+6ttiybkU094CEQm42tvWD4WiDopq6uDsdxtVq91RdIy6FpGopGKRSKF691m5AXvItJkqRpGo5zrtUJ3k2FXq/X6XTw702+QHoxeMEVBniB36QNy1KAAF7YNwmBWA+QwiAQFVAdk6xYLKbT6eHh4bGxsWQyaTAYWlpanE4n1HBdQyAaamZmJhwOt7S0aDSajQx/TKfTwWDw0aNHdXV1DodjPYIY4vG4x+PBMIymaYvF8vytg2jL4eHh8fHxUCikVqvr6+s7Ojr0ej3a5seqojA8z6fT6dnZ2UuXLl24cCEYDDocjv3790NseUX1O78WSLM0MjIyMjKiVCrlcvnGKAykC/N6vffu3Tt//vzLL79ssVjWIzVZLBYbHh7med5gMBgMhudsHQTCRiKRGzdunDt37vHjx2azube3F0qrvqiHMiqialljPvzwQ6VS+dOf/lSpVPr9/snJydHRURzH29vbXwD3KLx2p06dGhwczGQyUJF488OyrMvlOnfuHMdxx48fr6urC4VCjx8/vn//Psuyu3fvRpPMRr+acHA8Go263e7a2tr+/v6amprR0VGfz+f1emUyWWNjI5yJ3WDB1opSqZRKpaanp+/evRsIBEiS3CrubDiYFIvFJicn29ratm/fvm3bttnZ2Ww263a7xWJxd3c3VEKvtqTVpJpZY7RarcFgkEqlWq3W4XCkUimPx7Olk2BgGMayrMfjuXLlynvvvSeXy/ft26fRaLZKVDzLsvl8PpvNKhQKs9ksFArh0SSTSY/Hg7LGYFUxybLZLCiMWCyGfMeQNQbSR+RyOZqmt65VJhAILBbL66+/7nQ6lUplOBzeKkMyLGAgawxFUVKplCRJkUgkk8lIkgQ/DU3TG5Nrd9NSBZMsk8nAgWRI0Q25ummahoPKcKx3g6VaQ0iSVKvVarW6o6PD7/dnMpktYY9hX1nL8AggpAjHcdAZgiAgIc6WnvzXhCqYZHBeFyXs2WzADJNOp1GGyxWozhFlODi+8bdGrABM9WAqv8DBRM9JFfpFJpPBSV2O42CegSRxkPAOPapqAYtJWKUQBMFxHJTxgX+AeYaGuSqkWYIxDHL4QtYYcDRDkuUtnTVmSwMKQ1HUE7PGCIVClDUGq8oMI5FIIGtMIpFIJBL5fD6RSLjdbpqmjUYjUpgqIhKJIKcP1BpgWTaZTPp8PtgDQFljsCqmWYIUPoFAIJVKQY4VpVJZW1u71dMsbWkEAgFFUTRNJ5NJr9cL8Qqzs7PwaNAMg1UrzZLD4Xj77bfHxsbee+892HgxmUwdHR0vQNaYrQukWaqrqzt+/PjQ0NBHH330wQcfUBSl0+l27dqFssYAVegCgUBgMBh27dpls9kwDEulUhKJpL29vbGx0WAwvEhPRSwW63S6trY2qN21+VfMkG1w586ddrtdKpUmEgmSJO12e2tra21t7Yv0aJ6Z6gznYrHYYDC8+eabR44cgQUlRVEv3hayUqns7OxsamoSi8VbxVcLh7pfe+21/fv3F4tFgUAAuTDRwhKojsLA7C+Xy+VyeVUE2BhIkoRsy9UWpALgzHPZ9Y9Ywgu+YIDdA4VCodfrwWFabYnWGKFQqFAoeJ6nafrFa90m5AVXGEhLB3loNRrNi2f16fX6gYEBDMPArK22OC8+L7jCgO2n1WrX/PDzJgFWR9WW4k+ILbAMRSA2D0hhEIgKqLJJVigUgsFgqVSCQDKJRLK214djt+FwOJVKmUwmqKC9trd4IslkMhgMBgKBTCYjkUgsFovJZFqPqJ9MJhOPx6FQuFqtfv7rQ/oOj8fj9/tTqZRUKtXpdGazWS6Xbwm3+HpTZYVJpVKff/45wzAGg6G3t9disazt9VmWZRjmyy+/HB8f/+Y3v+lwODamoobL5frss89Onz49NzdntVrfeeed48ePG43GNVeYSCQyODjI87xer4f0Ls95QeixM2fOfPzxx+Pj43a7ff/+/W+99VZraytSGKy6CjM1NTU4OHjy5EmNRnPo0KF1OlIG1bTLJVrX4xaLKRQKc3NzExMTwWDw4MGDQqGQZdl0On327NlXXnnFarWubZ4nqDjL83yhUHj+1kFqqNu3bzMM09vbe+DAgUKhkM/nR0ZGOI7r7OxEOlOdvGQQqvzw4cPBwcGJiYmmpqaNF2OdgLyBLpcLw7DXXnutqanJ4/F8+umnN27caG1t1Wq1m7aQMpivgUDg+vXrDQ0NBw8e7O7unpycvHr16uTkJI7jra2ta5s1bitShQGDZdn5+fkPPvhgdHRUoVAcPHhw+/btGy/GOlEqleLxOEEQTqdTrVbDmQWZTFYqlSKRSCKRqLaAK1EsFiFrjFKpNJvNUPeqoaEhkUigrDFAdUr2yWSy+vp6HMc5jpudnX1h4pSgvH0ikeA4zmw2Q/obmqblcjlFUalUKpVKVVvGpwK2K2S6kEgkSqUStn21Wi3HcalUKp1Ow1mmaktaTaqgMCRJWq1Wq9WKYVg4HF5YWEin0xsvxnoAqVWSySSGYRqNBgIu4ayiXC5nGIZhmGrL+FTKaZY4joOASxAe8i3BSkylUlVbzCrzgu/0bzCgMLFYbIsetMrlcpA1BpleT+NP3emBQFQEmmHWEpIkKYpSq9XVFuQZoShKJpPRNL1FZ8gNAM0wawmcfoH6rNFoNJ/PgxsgnU7DrjlN09WW8alA1hhYuoCvDITPZDKlUgm8F0iRkMKsJZBhValUEgTh8/lgt5RhmFQqlcvlFArFZj4wh+O4WCyG/PzZbDaRSJRKpUwms7CwQBAEnPZDCoMUZo0hSVKlUnEcNzk5GYvFGIYJBoPpdJokSZ1Op1Qqqy3gSgiFQvCPJRIJn89XKBQWFhYga4zVakUKg6E1zJojEokcDgfDMD6f7+zZs5cvX2ZZliTJl156yWw2r3l06RoCZ4dqamr27NnjdruvXLkyODiYz+fz+Xxra2tbWxuUWqi2mFWmygpDEARFUaVSaT3qP1YFkUjkdDoLhcLjx48XB1++/vrrRqNxk+/6kSRpsVgOHz78wQcfXLx4sRx8uW3bNhR8CVRZYaDkUDm8v7rCrCE2m+3EiRMDAwPl8H69Xr8l7BmBQCCTyV5//fWurq7F4f0vTDTGc1JlhRGJRLW1tdWVYT1QKBQKhWIrBpUSBEEQRH19fX19fbVl2YygSRaBqIAXfNEP4YM9PT0NDQ21tbWbfAnxDGi12t7eXuyrFO/VFufF5wVXGIIgxGJxY2NjtQVZL8D2q7YUf0IgkwyBqACkMAhEBSCFQSAqACkMAlEBVV705/N5j8fDsixFUXq9fs1zIEG5Wb/fH4/HbTabXC7fyIJN2Ww2Fou53W6j0Wg2m9ej5C3U1sMwDCofrWHr8vl8JBKBApcQSLZWV97SVHmGSSaTn3/++fnz52/fvr2wsLDm1y+VSpCX7A9/+MP8/Hw+n1/zW6xAIpEYHh7+9a9/fevWLaixuua3iEQiN2/evHnz5sOHD9e2dQzDPHjw4NKlS2fPng2FQmt45S1NNWeY8fHxmzdvfvTRRwaD4fDhw+t3I8jmuAFJycpks9l4PP7pp58ODQ0Fg8FCobBON+K/Ym21cW5u7s6dO7///e/FYnFXV9dGdt0mpzp5yRiGCYfDDx8+HB0d9fl8G5ONcmPgOC6bzXo8nvHx8YcPH3q9Xo7j1ilH4XqQyWSi0ej4+PjIyMjc3FxNTU21JdpcVEFhWJZ1uVwff/wxnKk6ePCgRqPZeDHWCZZlvV7v1atX//d//7e/v3/fvn3Dw8NbIuwS8Pv9Fy9ehNNvR48eRRHKS6hOXjK1Wr1jxw4cx1mWhayKGy/GOkEQhFKpbG9vL5VKtbW16XR6YmJitPF4SQAAAlVJREFUCzVQqVS2tbXV1dVlMpl0Oh2LxViWrbZQm4jq5CUzmUwmkwnDsHA47Pf7X5i8ZBiGCQQCo9FoNBp3797t9/vv37+/tQZpnU63Z88eDMOi0egXX3yRTCaRwixmKz1LBKLqIIVBICoAKQwCUQFIYRCICkAKg0BUAFIYBKICkMIgEBVQ5WhlkiQhE7FMJtvIOOKNQSAQSKVSg8GwFUsQEwRB07RSqSwUClsoUmG92Sx5yUQi0YsXQK5UKjs7Oy0Wi1KphLJE1ZaoAmQyWVdXV0tLC8dxWq222uJsFqqsMEKh0Gg0VleG9UMkEolEoi1a/UIgELxIMX5rxYtmBT0RgiBIktxCAV2rB8dxgiB4nt9yJt8W5QVXGJIkaZru7+9vbm622WxisbjaEq0xOp1uYGAAwzCKol681m1CXnCFgYItdXV1dXV11ZZlXZDJZDKZrNpS/AmB5nEEogKQwiAQFYAUBoGoAKQwCEQFIIVBICoAKQwCUQFIYRCICkAKg0BUAFIYBKICkMIgEBWAFAaBqACkMAhEBSCFQSAqACkMAlEBSGEQiApACoNAVABSGASiApDCIBAVgBQGgagApDAIRAUghUEgKgApDAJRAUhhEIgKQAqDQFQAUhgEogKQwiAQFYAUBoGoAKQwCEQFIIVBICpgpez96XTa6/VumCgIxGYgGo3yPP+0v66kMGfPnp2bm1sHkRCIzUswGMzn80/761MV5i/+4i/WRx4EYlNjNBo7Ozubm5uf+Ff8abNPqVRaT6kQiE0NQRBPrPH4VIVBIBDL+T8gU9WB5/FmDQAAAABJRU5ErkJggg==;" vertex="1" parent="1">
                    <mxGeometry x="450" y="180" width="136" height="117.5" as="geometry"/>
                </mxCell>
            </root>
        </mxGraphModel>
    </diagram>
</mxfile>